<?xml version="1.0" encoding="utf-8"?>
<!-- Generator: Adobe Illustrator 23.0.0, SVG Export Plug-In . SVG Version: 6.00 Build 0)  -->
<svg version="1.1" id="Layer_1" xmlns="http://www.w3.org/2000/svg" xmlns:xlink="http://www.w3.org/1999/xlink" x="0px" y="0px"
	 viewBox="0 0 595.28 841.89" style="enable-background:new 0 0 595.28 841.89;" xml:space="preserve">
<style type="text/css">
	.st0{fill:#E51F2E;stroke:#E51F2E;stroke-width:0.216;stroke-miterlimit:2.6131;}
	.st1{fill-rule:evenodd;clip-rule:evenodd;fill:#FFE600;}
	.st2{fill-rule:evenodd;clip-rule:evenodd;fill:#E51F2E;}
</style>
<g>
	<path class="st0" d="M497.68,450.2c0.68,0,3.9,0.06,3.9,3.39c0,1.65-1.25,2.62-2.65,2.88v-0.17c0.6,0.09,1.11,0.71,1.4,1.37
		l2.14,4.93h-1.77l-2.08-4.59c-0.29-0.63-0.46-1.03-1.48-1.03h-1.4v5.61h-1.62V450.2H497.68L497.68,450.2z M495.74,455.56
		L495.74,455.56h1.51c1.77,0,2.62-1.03,2.62-1.97c0-0.74-0.2-1.97-2.25-1.97h-1.88V455.56L495.74,455.56z M497.91,445.81
		L497.91,445.81c5.78,0,10.51,4.73,10.51,10.51c0,5.78-4.73,10.51-10.51,10.51c-5.78,0-10.51-4.73-10.51-10.51
		C487.39,450.54,492.12,445.81,497.91,445.81L497.91,445.81z M497.91,465.42L497.91,465.42c5.07,0,9.09-4.02,9.09-9.09
		c0-5.07-4.02-9.09-9.09-9.09c-5.07,0-9.09,4.02-9.09,9.09C488.82,461.4,492.83,465.42,497.91,465.42L497.91,465.42z"/>
	<path class="st1" d="M138.05,368.76c-1.69-1.54-2.63-3.3-3.16-4.77c-0.53-1.53-1.21-3.43-1.21-5.05
		c0.03-7.29,4.29-12.71,8.87-15.22c2.08-1.14,2.86-1.92,3.17-2.32c-0.16-0.06-0.35-0.12-0.48-0.12c-6.24,0-9.43-2.42-11-4.47
		c-1.49-1.92-2.25-4.4-2.25-7.11c0-1.32,0.19-2.69,0.55-4.1c1.76-2.9,3.43-2.11,4.45-0.62c0.65,0.93,5.12,4.1,10.62,4.6
		c4,0.38,6.16,2.34,7.28,3.9c1.29,1.81,1.79,3.99,1.79,5.85c0,0.76-0.08,1.47-0.25,2.11c-0.6,2.45-3.18,4.65-6.77,7.46l-2.04,1.69
		c-2.98,2.61-4.62,5.51-4.62,7.97c0,0.61,0.11,1.21,0.32,1.77c0.09,0.23,0.19,0.45,0.31,0.66c1.33,2.25,5.1,3.67,10.56,1.76
		c2.52-0.88,7.39-3.93,10.35-6.88c3.49-3.48,8.15-4.32,12.64-4.67c3.89-0.29,6.28-1.25,7.97-3.14c4.98-5.62,9.78-6.41,14.27-6.74
		c1.72-0.13,1.81-0.25,2.03-0.56c2.47-3.3,5.02-5.04,7.3-6.06c1.74-0.77,3.33-1.13,4.63-1.41l1.58-0.39l0.39-0.14
		c2.5-0.8,4.43-1.47,9.52-4.91l0.22-0.14l0,0l0.21-0.13l0,0l0.21-0.13l0,0l0.21-0.12l0,0l0.22-0.11l0.01,0l0.21-0.11l0.01,0
		l0.21-0.1l0.01,0l0.21-0.1l0.01,0l0.21-0.09l0.01,0l0.21-0.09l0.01,0l0.22-0.08l0.01-0.01l0.21-0.08l0.23-0.08l0.01,0l0.21-0.07
		l0.01,0l0.22-0.06l0.02,0l0.21-0.06l0.02,0l0.22-0.05l0.02,0l0.21-0.05l0.02,0l0.22-0.04l0.02,0l0.21-0.04l0.02,0l0.21-0.04l0.02,0
		l0.21-0.03l0.02,0l0.21-0.03l0.02,0l0.21-0.02l0.02,0l0.21-0.02l0.02,0l0.21-0.02l0.02,0l0.21-0.01l0.02,0l0.21-0.01l0.23-0.01
		h0.02l0.21,0h0.23h0.03l0.21,0l0.03,0h0.02c0.15,0,0.3,0.01,0.44,0.02l0.2,0.01l0.03,0l0.2,0.02l0.03,0l0.2,0.02l0.03,0l0.2,0.02
		l0.03,0l0.2,0.02l0.03,0l0.2,0.02l0.03,0.01l0.2,0.03l0.03,0.01l0.2,0.03l0.03,0.01l0.19,0.03l0.04,0.01l0.19,0.04l0.03,0.01
		c0.3,0.06,0.6,0.12,0.9,0.2l0.18,0.05l0.04,0.01c0.3,0.08,0.59,0.16,0.87,0.25l0.17,0.05l0.04,0.01c0.57,0.18,1.12,0.38,1.66,0.6
		l0.15,0.06l0.2,0.08c10.88-14.77,28.07-24.61,47.61-25.49v0c0.32-0.01,0.64-0.03,0.97-0.04c0.32-0.01,0.64-0.02,0.97-0.02
		c0.32-0.01,0.65-0.01,0.97-0.01c0.32,0,0.64,0,0.96,0.01c0.32,0.01,0.64,0.01,0.95,0.02c0.32,0.01,0.63,0.02,0.95,0.04h0
		c0.31,0.02,0.63,0.03,0.95,0.05l0,0c18.91,1.14,35.56,10.66,46.29,24.9c1.53-0.53,3.2-0.92,4.9-1.03l0.04,0l0.16-0.01l0.17-0.01
		l0.04,0l0.04,0l0.16-0.01l0.04,0l0.16,0l0.04,0l0.17,0h0.04l0.17,0h0.04l0.21,0l0.17,0.01l0.04,0l0.17,0.01l0.04,0l0.17,0.01
		l0.03,0l0.17,0.01l0.03,0l0.17,0.02l0.03,0c0.41,0.04,0.83,0.11,1.24,0.19l0.18,0.04l0.02,0.01l0.18,0.04l0.02,0.01l0.18,0.05
		l0.02,0.01l0.18,0.05l0.02,0.01l0.19,0.05l0.02,0.01l0.18,0.06l0.02,0.01l0.19,0.06l0.01,0.01l0.2,0.07l0.19,0.07l0.01,0.01
		l0.19,0.07l0.01,0.01l0.19,0.08l0.01,0.01c0.33,0.14,0.66,0.29,0.98,0.47l0.01,0l0.19,0.1l0,0l0.19,0.11l0,0l0.19,0.12l0,0
		l0.19,0.12v0l0.19,0.12c3.51,2.38,5.53,3.43,7.26,4.12c0.78,0.31,1.5,0.54,2.26,0.79l0.4,0.14l1.6,0.39
		c0.87,0.19,1.85,0.41,2.92,0.76c2.68,0.87,5.88,2.56,8.98,6.71c0.22,0.3,0.33,0.43,2.05,0.56c4.49,0.33,9.28,1.12,14.28,6.74
		c1.68,1.9,4.06,2.85,7.95,3.14c4.51,0.35,9.16,1.19,12.64,4.67c2.97,2.94,7.83,6,10.36,6.88c5.46,1.91,9.24,0.5,10.54-1.76
		c0.28-0.48,0.48-1,0.57-1.55c0.05-0.28,0.08-0.58,0.08-0.87c0-2.46-1.64-5.36-4.62-7.97l-0.37-0.31l-1.68-1.38
		c-3.58-2.81-6.15-5.02-6.77-7.46c-0.16-0.63-0.24-1.35-0.24-2.11c0-1.86,0.51-4.04,1.78-5.85c1.13-1.56,3.31-3.52,7.29-3.9
		c5.53-0.5,9.97-3.67,10.62-4.6c1.04-1.49,2.7-2.28,4.44,0.62c0.37,1.41,0.56,2.79,0.56,4.1c0,2.72-0.76,5.18-2.24,7.11
		c-1.58,2.05-4.77,4.47-11.01,4.47c-0.13,0-0.32,0.06-0.47,0.12c0.31,0.4,1.08,1.18,3.17,2.32c4.58,2.51,8.84,7.93,8.88,15.22
		c0,1.62-0.67,3.52-1.22,5.05c-0.47,1.32-1.28,2.87-2.64,4.29c-0.16,0.17-0.32,0.33-0.5,0.49c-2.58,2.4-6.88,4.28-14.04,3.85
		c-0.72-0.04-1.47-0.11-2.26-0.2c-0.18,3.61-1.18,7.91-2.57,10.08c-0.43,0.68-0.51,1.14-0.51,1.36c0,0.09,0.01,0.15,0.01,0.19
		c0.05,0.02,3.18,1.86,3.18,1.86l0.51,0.26c0,0,0.29,0.14,0.33,0.17c0.05-0.02,1.08-0.06,1.08-0.06l0.2-0.03l0.02,0
		c1.96-0.19,4.95-1.14,6.22,2.41c0.33,0.94,0.54,1.76,0.73,2.49c0.39,1.49,0.72,2.59,2.02,3.59c0,0,0.64-0.55,1.38-1.2
		c0.6-0.53,1.25-1.13,1.66-1.53c0.91-0.93,2.58-0.46,3.79,0c1.22,0.46,2.74,1.52,3.81,2.13c1.08,0.6,1.67,1.37,1.98,2.29
		c0.32,0.91,1.07,1.52,2.21,2.12c1.1,0.63,2.68,2.63,2.68,5.34c0,0.41,0.05,0.77,0.16,1.15c0.08,0.25,0.19,0.51,0.34,0.8
		c1.54,3.1,0.3,4.67-0.59,5.33c-1.2,0.9-3.32,1.27-5.3,0.94l0.01,0.51l-2.9-0.39c-1.12-0.14-2.61,0.15-3.49,0.33l-0.21,0.06
		c-2.07,0.41-4.77-0.29-6.28-2.75c-0.06-0.09-0.11-0.18-0.16-0.28c-0.78-1.36-1.98-2.62-2.57-2.97c-0.85,0.23-2.2,0.55-3.8,0.39
		c-1.49-0.15-3.2-0.72-4.95-2.16c-0.29-0.24-0.58-0.5-0.87-0.79c-2.57-2.57-5.95-3.1-8.07-2.77l-1.27,0.22
		c-2.62,0.47-5.88,1.08-8.9-0.77c-0.75-0.46-1.83-0.93-2.9-1.38c-2.74-1.19-5.57-2.42-5.96-5.02c-0.07-0.46-0.57-1.31-0.98-1.98
		c-0.36-0.6-0.76-1.25-1.06-1.94c-0.29-0.67-0.5-1.37-0.53-2.11c-0.87,0.22-1.79,0.33-2.75,0.28c-0.32-0.02-0.65-0.05-0.98-0.1
		l-1.19-0.18c-2-0.34-6.2-1.03-7.54-0.54c-2.67,0.96-11.04,1.42-13.34,0.9c0,0-0.84-0.19-1.64-0.36c-0.77,0.79-1.62,1.53-2.52,2.19
		c1.68,0.09,3.16-0.12,4.17,0.15l2.11,0.56c0.67-0.2,2.32-0.18,3.26-0.09l2.47,0.19l2.82,0.27c1.36,0.27,2.8,0.86,2.56,3.52
		c-0.1,0.82-0.55,1.98-1.25,2.66c-0.38,0.42-1.85,2.55-2.18,3.23l-0.11,0.21c-0.57,1.22-1.42,2.35-3.9,2.35
		c-0.31,0-0.71,0.01-0.94,0.04c-0.08,0.2-0.28,0.57-0.28,0.57c-0.56,1.27-1.36,3.03-2.9,4.06l-0.41,0.3
		c-1.24,0.88-3.3,2.34-6.45,1.19l-1.08-0.39c-2.75-0.99-6.9-2.48-9-3.62l-0.29-0.16c-1.95-1.07-2.38-1.28-3.09-1.18l-0.39,0.06
		c-1.5,0.21-4.32,0.59-6.28-2.65l-0.18-0.28c-9.26,12.71-23.17,21.8-39.24,24.77l-0.07,0.01c-0.55,0.1-1.1,0.2-1.65,0.28l-0.21,0.03
		l-0.75,0.11c-0.29,0.04-0.59,0.08-0.88,0.12l-0.54,0.07l-0.85,0.09l-0.59,0.06c-0.38,0.04-0.77,0.07-1.15,0.1l-0.37,0.03
		c-0.35,0.02-0.7,0.05-1.06,0.07l-0.39,0.02c-0.41,0.02-0.82,0.03-1.23,0.05l-0.42,0.01c-0.44,0.01-0.87,0.02-1.3,0.02
		c-0.45,0-0.89-0.01-1.34-0.02l-0.39-0.01c-0.39-0.01-0.79-0.03-1.18-0.04l-0.48-0.03c-0.33-0.02-0.67-0.04-1-0.06l-0.42-0.03
		c-0.39-0.03-0.79-0.06-1.18-0.1l-0.58-0.06l-0.77-0.09l-0.43-0.05c-0.41-0.05-0.81-0.11-1.21-0.16l-0.49-0.07l-0.86-0.14
		l-0.44-0.08c-0.35-0.06-0.69-0.12-1.04-0.19l-0.75-0.15l-0.38-0.08c-0.51-0.11-1.03-0.22-1.53-0.34l-0.14-0.03l-0.8-0.2l-0.41-0.11
		c-0.48-0.12-0.95-0.25-1.42-0.39l-0.17-0.05c-14.08-4.06-26.12-12.93-34.23-24.71l-1.07,1.63c-1.93,3.24-4.75,2.86-6.27,2.65
		l-0.39-0.06c-0.71-0.1-1.16,0.12-3.09,1.18l-0.31,0.16c-2.09,1.15-6.23,2.63-8.99,3.62l-1.09,0.39c-3.15,1.15-5.22-0.31-6.43-1.19
		l-0.43-0.3c-1.54-1.02-2.34-2.79-2.9-4.06c0,0-0.19-0.37-0.28-0.57c-0.24-0.03-0.63-0.04-0.95-0.04c-2.46,0-3.33-1.12-3.89-2.35
		l-0.1-0.21c-0.33-0.67-1.79-2.81-2.19-3.23c-0.68-0.68-1.16-1.84-1.24-2.66c-0.25-2.66,1.21-3.25,2.55-3.52l2.82-0.27l2.48-0.19
		c0.92-0.08,2.57-0.11,3.24,0.09l2.11-0.56c1.01-0.26,2.5-0.05,4.16-0.15c-0.88-0.66-1.71-1.4-2.51-2.19
		c-0.81,0.17-1.64,0.36-1.64,0.36c-2.3,0.53-10.67,0.06-13.31-0.9c-1.35-0.49-5.54,0.2-7.55,0.54l-1.21,0.18
		c-1.3,0.19-2.55,0.12-3.7-0.18c-0.06,1.52-0.89,2.89-1.59,4.06c-0.41,0.67-0.93,1.52-0.99,1.98c-0.36,2.59-3.23,3.82-5.96,5.02
		c-1.06,0.45-2.13,0.92-2.89,1.38c-3,1.84-6.28,1.24-8.9,0.77l-1.27-0.22c-2.11-0.33-5.5,0.2-8.06,2.77
		c-3.93,3.92-7.83,3.06-9.61,2.57c-0.59,0.35-1.8,1.61-2.57,2.97c-1.48,2.69-4.32,3.46-6.46,3.03l-0.21-0.06
		c-0.88-0.18-2.34-0.47-3.46-0.33l-2.92,0.39l0.03-0.51c-2,0.32-4.12-0.05-5.32-0.94c-0.88-0.66-2.12-2.22-0.56-5.33
		c0.37-0.74,0.49-1.26,0.49-1.95c0-2.71,1.57-4.71,2.67-5.34c1.15-0.6,1.91-1.21,2.22-2.12c0.3-0.92,0.9-1.68,1.98-2.29
		c1.07-0.61,2.59-1.66,3.8-2.13c1.21-0.46,2.89-0.93,3.81,0c0.92,0.9,3.03,2.73,3.03,2.73c1.94-1.49,1.75-3.22,2.76-6.08
		c1.26-3.55,4.26-2.59,6.21-2.41l0.23,0.03c0,0,1.05,0.05,1.08,0.06c0.05-0.03,0.35-0.17,0.35-0.17l0.49-0.26
		c0,0,3.15-1.85,3.18-1.86c0.01-0.04,0.01-0.09,0.01-0.19c0-0.22-0.08-0.68-0.5-1.36c-1.4-2.17-2.39-6.46-2.57-10.08
		c-0.5,0.06-0.99,0.11-1.47,0.15C145.23,373.17,140.7,371.24,138.05,368.76L138.05,368.76z M425.48,386.23l-0.22,0.03L425.48,386.23
		L425.48,386.23z M348.48,326.1c-0.41-0.08-0.83-0.15-1.24-0.19L348.48,326.1L348.48,326.1z M351.69,327.25
		c-0.32-0.17-0.65-0.33-0.98-0.47L351.69,327.25L351.69,327.25z M297.6,426.76c0.3-0.04,0.59-0.08,0.88-0.12L297.6,426.76
		L297.6,426.76z M294.47,427.07c0.39-0.03,0.77-0.06,1.15-0.1L294.47,427.07L294.47,427.07z M293.04,427.17
		c0.36-0.02,0.71-0.04,1.06-0.07L293.04,427.17L293.04,427.17z M291.42,427.23c0.41-0.01,0.82-0.03,1.23-0.05L291.42,427.23
		L291.42,427.23z M288.36,427.24c0.45,0.01,0.89,0.02,1.34,0.02c0.44,0,0.87-0.01,1.3-0.02L288.36,427.24L288.36,427.24z
		 M286.79,427.19c0.39,0.02,0.79,0.03,1.18,0.04L286.79,427.19L286.79,427.19z M285.3,427.1c0.33,0.02,0.67,0.04,1,0.06L285.3,427.1
		L285.3,427.1z M283.7,426.97c0.39,0.04,0.79,0.07,1.18,0.1L283.7,426.97L283.7,426.97z M280.71,426.61
		c0.4,0.06,0.81,0.11,1.21,0.16L280.71,426.61L280.71,426.61z M277.87,426.14c0.35,0.07,0.69,0.13,1.04,0.19L277.87,426.14
		L277.87,426.14z"/>
	<path class="st2" d="M234.17,348.25c-0.44-0.8-0.26-1.61,0.18-2.39c1.01-1.54,1.95,0.14,1.95,0.14c3.47,4.84,0.91,12.1,0.91,12.1
		C236.85,351.42,234.17,348.25,234.17,348.25L234.17,348.25z M264.12,380.33c0.05-1.42,0.17-4.59-1.27-5.71
		c-0.53-0.42-2.64-2.73-2.64-2.73c-0.32-0.56-0.57-0.59-0.57-0.59c-0.43-0.04-1,0.97-1,0.97c-1.5,2.9-3,2.55-3,2.55
		c-0.01-0.53,0.34-1.12,0.34-1.12c0.41-0.77,2.16-4.24,2.16-4.24c0.22-0.5,0.42-1.17,0.42-1.17c1.45-2.25,2.82-0.54,2.82-0.54
		c0.61,1.19,3.86,5.07,3.86,5.07c0.72,0.86,0.79,1.78,0.79,1.78C266.78,379.9,264.12,380.33,264.12,380.33L264.12,380.33
		L264.12,380.33z M255.55,393.87c-0.62-0.02-0.77-0.24-0.7-0.92c0.41-1.89,1.93-2.7,1.93-2.7c2.84-1.7,3.19,0,3.19,0
		c0.52,3.03-1.88,3.41-1.88,3.41C257.61,393.83,255.55,393.87,255.55,393.87L255.55,393.87L255.55,393.87z M132.01,402.67
		c0,0,0.62,0.46,0.29,1.36c0,0-1.59,4.34-1.51,5.79c0,0-3.51,0.63-3.99-1.1c0,0-0.09-0.67,0.48-1.64c0,0,0.59-0.9,0.75-2.55
		c0,0-0.05-4.16,2.64-3.06C131.2,401.77,131.63,402.2,132.01,402.67L132.01,402.67L132.01,402.67z M136.29,395.77
		c0.58-0.48,1.43-0.76,2.18-0.58c1.7,0.37,0.67,1.83,0.67,1.83c-0.69,1.29-2.93,3.46-2.93,3.46c-2,1.49-3.58-0.29-3.58-0.29
		c-1.48-1.46,0.45-2.16,0.45-2.16C134.2,397.58,136.29,395.77,136.29,395.77L136.29,395.77L136.29,395.77z M156.82,369.77
		c0,0-0.63,6.15,2.14,11.57c0,0,2.05,2.91-0.08,4.78l-4.25,2.47c0,0-0.57,0.42-2.46,0.28c0,0-2.62-0.65-3.49,0.51
		c0,0-0.76,2.22-1.71,4.05c0,0-1.93,4.44-5.13,5.86c0,0-2.55,0.58-3.32,2.79c0,0-0.82,1.55-2.47,1.62c0,0-1.23,0.39-2.04,3.13
		c0,0-0.44,1.77-0.42,3.13c0,0,2.09-0.27,3.46,0.22c0,0,3.36,1.13,4.86-1.64c0,0,2.9-4.96,5.05-4.22c0,0,4.32,1.45,7.37-1.7
		c0,0,4.19-4.58,10.11-3.64c0,0,6.66,1.35,8.74-0.19c0,0,4.2-2.2,5.78-2.74c0,0,1.93-0.57,2.13-2.68c0,0,1.17-2.97,2.03-3.96
		l-3.18-0.04c0,0-2.88,4.84-7.77,6.3c0,0-2.68,1.07-8.04,0.2c0,0-7.71-1.75-14.48,5.57c0,0-0.93,1.34-2.25,0.8
		c0,0,3.74-6.38,11.96-7.89c0,0,2.69-0.57,4.93-0.21c0,0,11.06,0.32,16.19-10.57c0,0-0.55-9.29,1.89-11.49c0,0,0.95-0.29,0.76,1.51
		c0,0-1.68,9.73,1.48,11.61c0,0,1.84,1.44,5.23,0.91c0,0,5.15-1.23,9.33-0.51c0,0,6.44,1.53,11.97,0.82c0,0-1.44-2.2-1.15-4.83
		c0,0,0.79-1.88,1.7-0.67c0,0,2.13,7.03,7.94,9.14c0,0,5.19,1.89,5.11,8.48c0,0-0.79,0.9-7.68,3.35c0,0-2.57,0.81-3.4-1.11
		c0,0-3.32-7.11-6.21-6.89l-5.43,0.44c0,0-1.85,0.47-0.49,1.96c0,0,1.86,2.47,2.62,3.95c0,0,0.22,1.26,1.97,0.99
		c0,0,2.42-1.2,3.79,3.31c0,0,1.25,2.25,3.37,2.97c0,0,1.98,0.66,3.84-0.38c0,0,8.96-3.29,10.52-4.46c0,0,1.94-1.08,3.47-0.56
		c0,0,2.69,0.64,3.8-1.48l2.78-4.3c0,0,0.61-1.06,0.53-2.39c0,0,0.25-1.32-0.86-2.66c0,0-1.05-1.11-1.22-1.91l-1.98-4.65
		c0,0-0.8-1.24-1.68-1.75l-2.64,0.19c0,0,1.82,4.65,3.15,6.54c0,0,1.8,2.76,1.71,4.51c0,0-0.12,1.23-0.6,1.74
		c0,0-0.61,0.98-0.86,1.45c0,0-0.8,1.74-1.45,2.13c0,0-1.12,0.67-1.4,0.69c0,0-0.49,0.14-0.13-0.74c0,0,1.48-3.12,1.38-4.79
		c0,0,0.29-1.74-0.94-2.75c0,0-2.88-4.55-3.29-5.91c0,0-0.9-1.82-1.39-2.13c0,0-1.01-1.32,0.62-1.94c0,0,4.05-0.91,4.77-1.41
		c0,0,1.94-0.59,3.21-4.64c0,0,1.74-4.73,1.72-7.64c0,0,3.41,6.58-2.03,13.26c0,0,4.3,1.27,6.08,0c0,0,5.36-0.78,6.4-1.07
		c0,0,1.35-0.33,0.58,0.63c0,0-1.62,2.3-1.75,3.81c0,0-0.1,1.2-1.09,1.9c0,0-3.05,2.13-3.32,4.18c0,0-0.65,1.97,0.69,1.5
		c0,0,1.83-0.85,2.47,0.01c0,0,0.19,0.09-0.51,0.88c0,0-1.83,1.59-1.97,3.73c0,0,0.34,2.47,0.99,3.26c0,0,0.82,1.14,2.13,0.78
		c0,0,0.35-0.28,0.97-0.09c0,0,0.64,0,2.33-0.58c0,0,2.55-0.7,3.41-1c0,0,3.25-1.16,4.85-1.08c0,0,1.04-0.12,2.37,0.15
		c0,0,4.06,0.46,6.77-2.53c0,0,2.06-1.63,2.76-0.05c0,0,4.94,6.63,12.94,4.88c0,0-6.37-2.62-8.02-6.18c0,0-0.22-3.03-3.56-7.23
		c0,0-1.02-1.4-0.04-1.76c0,0,0.57-0.43,1.81,0.82c0,0,3.17,3.04,4.31,5.82c0,0,3.93,5.94,9.6,3.95c0,0-4.45-1.72-6.54-4.92
		c0,0-1.29-4.33-5.64-7.56c0,0-0.17-4.87-2.2-7.61c0,0-1.03-4.57-1.31-5.64c0,0-1.09-4.02-1.09-5.13c0,0,0.36-5.25-3.02-9.33
		c0,0-2.27-4.37-5.8-7.42c0,0-2.68-3.31-4.68-5.34c0,0-2.62-3.08-8.35-7.09c0,0-2.59-1.88-4.49-3.91c0,0-10.09-7.27-17.39-1.44
		c0,0-5.04,3.43-9.24,4.49c0,0-8.64,1.01-12.33,7.01c0,0-0.32,1.11-3.8,1.53c0,0-7.65-0.92-13.29,6.6c0,0-2.62,2.56-7.8,3.18
		c0,0-8.45-0.87-13.96,5.62c0,0-13.89,12.11-22.17,4.26c0,0-4.29-4.06,0.62-11.42c0,0,3.11-3.75,8.42-7.68c0,0,4.31-3.03,2.33-7.75
		c0,0-1.04-4.56-7.5-4.68c0,0-8.1-1.56-11.37-5.65c0,0-3.66,12.88,10.69,12.66c0,0,3.74,0.55,2.43,3.52c0,0-1.83,2.54-4.29,3.46
		c0,0-4.33,1.89-6.28,8.2c0,0-4.37,11.03,6.29,15.29C147.86,370.92,152.6,370.51,156.82,369.77L156.82,369.77L156.82,369.77z"/>
	<path class="st2" d="M343.4,348.25c0.44-0.8,0.26-1.61-0.19-2.39c-1.01-1.54-1.94,0.14-1.94,0.14c-3.48,4.84-0.91,12.1-0.91,12.1
		C340.71,351.42,343.4,348.25,343.4,348.25L343.4,348.25z M313.44,380.33c-0.05-1.42-0.17-4.59,1.27-5.71
		c0.54-0.42,2.64-2.73,2.64-2.73c0.32-0.56,0.57-0.59,0.57-0.59c0.43-0.04,1,0.97,1,0.97c1.5,2.9,3,2.55,3,2.55
		c0.01-0.53-0.34-1.12-0.34-1.12c-0.41-0.77-2.15-4.24-2.15-4.24c-0.22-0.5-0.42-1.17-0.42-1.17c-1.45-2.25-2.82-0.54-2.82-0.54
		c-0.61,1.19-3.86,5.07-3.86,5.07c-0.72,0.86-0.79,1.78-0.79,1.78C310.78,379.9,313.44,380.33,313.44,380.33L313.44,380.33
		L313.44,380.33z M322.01,393.87c0.62-0.02,0.78-0.24,0.7-0.92c-0.42-1.89-1.93-2.7-1.93-2.7c-2.84-1.7-3.19,0-3.19,0
		c-0.52,3.03,1.88,3.41,1.88,3.41C319.95,393.83,322.01,393.87,322.01,393.87L322.01,393.87L322.01,393.87z M445.55,402.67
		c0,0-0.62,0.46-0.29,1.36c0,0,1.58,4.34,1.51,5.79c0,0,3.51,0.63,3.99-1.1c0,0,0.1-0.67-0.48-1.64c0,0-0.59-0.9-0.75-2.55
		c0,0,0.05-4.16-2.64-3.06C446.36,401.77,445.94,402.2,445.55,402.67L445.55,402.67L445.55,402.67z M441.27,395.77
		c-0.58-0.48-1.43-0.76-2.18-0.58c-1.7,0.37-0.67,1.83-0.67,1.83c0.69,1.29,2.93,3.46,2.93,3.46c2,1.49,3.58-0.29,3.58-0.29
		c1.48-1.46-0.45-2.16-0.45-2.16C443.37,397.58,441.27,395.77,441.27,395.77L441.27,395.77L441.27,395.77z M420.74,369.77
		c0,0,0.64,6.15-2.14,11.57c0,0-2.05,2.91,0.08,4.78l4.25,2.47c0,0,0.57,0.42,2.47,0.28c0,0,2.62-0.65,3.49,0.51
		c0,0,0.76,2.22,1.71,4.05c0,0,1.93,4.44,5.13,5.86c0,0,2.55,0.58,3.32,2.79c0,0,0.82,1.55,2.47,1.62c0,0,1.23,0.39,2.04,3.13
		c0,0,0.44,1.77,0.42,3.13c0,0-2.1-0.27-3.46,0.22c0,0-3.36,1.13-4.85-1.64c0,0-2.9-4.96-5.05-4.22c0,0-4.32,1.45-7.37-1.7
		c0,0-4.19-4.58-10.11-3.64c0,0-6.66,1.35-8.74-0.19c0,0-4.2-2.2-5.78-2.74c0,0-1.93-0.57-2.13-2.68c0,0-1.17-2.97-2.03-3.96
		l3.18-0.04c0,0,2.88,4.84,7.77,6.3c0,0,2.68,1.07,8.04,0.2c0,0,7.71-1.75,14.48,5.57c0,0,0.93,1.34,2.24,0.8
		c0,0-3.74-6.38-11.95-7.89c0,0-2.69-0.57-4.93-0.21c0,0-11.07,0.32-16.2-10.57c0,0,0.56-9.29-1.89-11.49c0,0-0.95-0.29-0.76,1.51
		c0,0,1.68,9.73-1.48,11.61c0,0-1.84,1.44-5.23,0.91c0,0-5.15-1.23-9.33-0.51c0,0-6.44,1.53-11.97,0.82c0,0,1.44-2.2,1.15-4.83
		c0,0-0.79-1.88-1.7-0.67c0,0-2.13,7.03-7.94,9.14c0,0-5.19,1.89-5.11,8.48c0,0,0.8,0.9,7.68,3.35c0,0,2.57,0.81,3.4-1.11
		c0,0,3.32-7.11,6.21-6.89l5.43,0.44c0,0,1.85,0.47,0.49,1.96c0,0-1.86,2.47-2.62,3.95c0,0-0.22,1.26-1.97,0.99
		c0,0-2.42-1.2-3.79,3.31c0,0-1.25,2.25-3.36,2.97c0,0-1.98,0.66-3.84-0.38c0,0-8.96-3.29-10.52-4.46c0,0-1.94-1.08-3.48-0.56
		c0,0-2.69,0.64-3.8-1.48l-2.78-4.3c0,0-0.61-1.06-0.53-2.39c0,0-0.25-1.32,0.86-2.66c0,0,1.05-1.11,1.21-1.91l1.98-4.65
		c0,0,0.8-1.24,1.68-1.75l2.65,0.19c0,0-1.82,4.65-3.15,6.54c0,0-1.8,2.76-1.71,4.51c0,0,0.12,1.23,0.6,1.74
		c0,0,0.61,0.98,0.86,1.45c0,0,0.8,1.74,1.45,2.13c0,0,1.12,0.67,1.4,0.69c0,0,0.49,0.14,0.13-0.74c0,0-1.48-3.12-1.38-4.79
		c0,0-0.29-1.74,0.94-2.75c0,0,2.88-4.55,3.3-5.91c0,0,0.9-1.82,1.38-2.13c0,0,1.01-1.32-0.62-1.94c0,0-4.05-0.91-4.77-1.41
		c0,0-1.94-0.59-3.21-4.64c0,0-1.74-4.73-1.71-7.64c0,0-3.41,6.58,2.03,13.26c0,0-4.3,1.27-6.09,0c0,0-5.36-0.78-6.4-1.07
		c0,0-1.35-0.33-0.58,0.63c0,0,1.61,2.3,1.75,3.81c0,0,0.1,1.2,1.09,1.9c0,0,3.05,2.13,3.32,4.18c0,0,0.65,1.97-0.69,1.5
		c0,0-1.82-0.85-2.47,0.01c0,0-0.19,0.09,0.52,0.88c0,0,1.83,1.59,1.97,3.73c0,0-0.34,2.47-0.99,3.26c0,0-0.82,1.14-2.13,0.78
		c0,0-0.34-0.28-0.97-0.09c0,0-0.64,0-2.33-0.58c0,0-2.55-0.7-3.4-1c0,0-3.25-1.16-4.85-1.08c0,0-1.04-0.12-2.37,0.15
		c0,0-4.06,0.46-6.77-2.53c0,0-2.06-1.63-2.76-0.05c0,0-4.94,6.63-12.95,4.88c0,0,6.37-2.62,8.02-6.18c0,0,0.22-3.03,3.55-7.23
		c0,0,1.02-1.4,0.04-1.76c0,0-0.57-0.43-1.81,0.82c0,0-3.16,3.04-4.31,5.82c0,0-3.94,5.94-9.61,3.95c0,0,4.45-1.72,6.54-4.92
		c0,0,1.29-4.33,5.64-7.56c0,0,0.17-4.87,2.2-7.61c0,0,1.03-4.57,1.31-5.64c0,0,1.09-4.02,1.08-5.13c0,0-0.36-5.25,3.02-9.33
		c0,0,2.27-4.37,5.8-7.42c0,0,2.68-3.31,4.68-5.34c0,0,2.62-3.08,8.35-7.09c0,0,2.59-1.88,4.49-3.91c0,0,10.09-7.27,17.39-1.44
		c0,0,5.04,3.43,9.25,4.49c0,0,8.64,1.01,12.33,7.01c0,0,0.31,1.11,3.8,1.53c0,0,7.65-0.92,13.29,6.6c0,0,2.62,2.56,7.8,3.18
		c0,0,8.45-0.87,13.95,5.62c0,0,13.89,12.11,22.17,4.26c0,0,4.29-4.06-0.62-11.42c0,0-3.11-3.75-8.42-7.68c0,0-4.31-3.03-2.33-7.75
		c0,0,1.04-4.56,7.5-4.68c0,0,8.09-1.56,11.37-5.65c0,0,3.66,12.88-10.69,12.66c0,0-3.74,0.55-2.43,3.52c0,0,1.83,2.54,4.29,3.46
		c0,0,4.33,1.89,6.29,8.2c0,0,4.37,11.03-6.3,15.29C429.7,370.92,424.96,370.51,420.74,369.77L420.74,369.77L420.74,369.77z"/>
	<path class="st2" d="M167.02,503.83h21.34c0,0-0.89-10.08-10.52-10.08S167.02,503.83,167.02,503.83L167.02,503.83L167.02,503.83z
		 M178.14,481.61c28.75,0,27.56,28.01,27.56,28.01v4.44h-38.98c0,6.37,5.33,11.85,12.6,11.85c7.26,0,10.97-6.97,10.97-6.97
		l13.78,6.82c-6.37,9.64-14.97,13.49-24.6,13.49c-29.94,0-30.53-24.89-30.53-28.01S149.39,481.61,178.14,481.61L178.14,481.61
		L178.14,481.61z M242.16,523.54L242.16,523.54c-0.89,0-12.01,0.15-12.01-13.48c0-13.64,12.15-14.08,12.15-14.08
		s13.63,0.44,13.63,13.78C255.94,523.1,243.05,523.54,242.16,523.54L242.16,523.54L242.16,523.54z M255.21,446.89v41.09
		c0,0-8.3-6.37-17.79-6.37c-9.48,0-25.49,6.67-25.49,27.71c0,21.04,13.63,29.05,25.34,29.05c11.71,0,18.23-7.71,18.23-7.71v6.84
		h16.89v-90.61H255.21L255.21,446.89z M369.17,484.42h17.19v30.38c0,0,0.59,10.23,10.23,10.23c9.63,0,9.49-10.23,9.49-10.23v-30.23
		h17.33v31.27c0,0,2.23,24.45-26.38,24.45c-28.6,0-27.86-21.49-27.86-25.34C369.17,511.09,369.17,484.42,369.17,484.42
		L369.17,484.42L369.17,484.42z M433.41,446.89h16.97v90.61h-16.97V446.89L433.41,446.89z M462.23,446.89h16.75v90.61h-16.75V446.89
		L462.23,446.89z M334.71,522.36L334.71,522.36h-16.08v-56.68h8.59c0,0,11.68-0.88,11.68,9.31c0,10.19-9.29,9.29-9.29,9.29h-5.35
		v15.27c0,0,7.71,0,10.44,0c2.74,0,11.46,1.33,11.46,11.36C346.16,520.94,334.71,522.36,334.71,522.36L334.71,522.36L334.71,522.36z
		 M349.16,490.2c0,0,7.85-6.11,7.85-17.68c0-11.58-8.41-22.02-26.32-22.02c-17.91,0-29.99,0-29.99,0l0,87h36.94
		c0,0,26.48-0.3,26.48-24.23C364.12,499.38,358.73,494.06,349.16,490.2L349.16,490.2L349.16,490.2z M87,448.64v88.86h17.93v-71.9
		h8.45c0,0,13.19-0.59,13.19,11.41c0,12-11.71,11.71-11.71,11.71h-4.3v20.45l17.93,28.33h21.04l-25.04-36.33
		c0,0,20.6-1.78,20.6-24.16c0-22.38-15.56-28.37-36.31-28.37C88.04,448.64,87,448.64,87,448.64L87,448.64L87,448.64z"/>
</g>
</svg>
